<?xml version="1.0" standalone="no"?>
<!DOCTYPE svg PUBLIC "-//W3C//DTD SVG 20010904//EN"
 "http://www.w3.org/TR/2001/REC-SVG-20010904/DTD/svg10.dtd">
<svg version="1.0" xmlns="http://www.w3.org/2000/svg"
 width="96.000000pt" height="96.000000pt" viewBox="0 0 96.000000 96.000000"
 preserveAspectRatio="xMidYMid meet">

<g transform="translate(0.000000,96.000000) scale(0.100000,-0.100000)"
fill="#000000" stroke="none">
<path d="M368 944 c-87 -21 -156 -60 -223 -128 -190 -190 -191 -483 -3 -670
192 -191 484 -192 672 -4 113 113 163 263 138 411 -48 278 -315 457 -584 391z
m227 -314 l150 -150 -150 -150 -150 -150 -72 0 c-40 0 -73 3 -73 7 0 4 64 72
142 150 l143 143 -143 143 c-78 78 -142 146 -142 150 0 4 33 7 73 7 l72 0 150
-150z"/>
</g>
</svg>
