<?xml version="1.0" standalone="no"?>
<!DOCTYPE svg PUBLIC "-//W3C//DTD SVG 20010904//EN"
 "http://www.w3.org/TR/2001/REC-SVG-20010904/DTD/svg10.dtd">
<svg version="1.0" xmlns="http://www.w3.org/2000/svg"
 width="512.000000pt" height="512.000000pt" viewBox="0 0 512.000000 512.000000"
 preserveAspectRatio="xMidYMid meet">

<g transform="translate(0.000000,512.000000) scale(0.100000,-0.100000)"
fill="#000000" stroke="none">
<path d="M2340 5109 c-781 -67 -1485 -489 -1923 -1154 -91 -139 -208 -372
-265 -530 -150 -415 -188 -888 -107 -1328 128 -692 525 -1288 1120 -1680 139
-91 372 -208 530 -265 415 -150 888 -188 1328 -107 692 128 1288 525 1680
1120 91 139 208 372 265 530 150 415 188 888 107 1328 -128 692 -525 1288
-1120 1680 -134 88 -368 206 -520 262 -334 123 -732 175 -1095 144z m860
-1764 l785 -785 -785 -785 -785 -785 -422 0 c-233 0 -423 3 -423 7 0 5 350
358 777 785 l778 778 -778 778 c-427 427 -777 780 -777 785 0 4 190 7 423 7
l422 0 785 -785z"/>
</g>
</svg>
